<svg xmlns="http://www.w3.org/2000/svg" width="169" height="169" viewBox="0 0 169 169">
  <g id="Group_39" data-name="Group 39" transform="translate(-992 -780)">
    <g id="Ellipse_37" data-name="Ellipse 37" transform="translate(992 780)" fill="rgba(126,87,197,0.47)" stroke="#7e57c5" stroke-width="1">
      <circle cx="3.5" cy="3.5" r="3.5" stroke="none"/>
      <circle cx="3.5" cy="3.5" r="3" fill="none"/>
    </g>
    <g id="Ellipse_37-2" data-name="Ellipse 37" transform="translate(1019 780)" fill="rgba(126,87,197,0.47)" stroke="#7e57c5" stroke-width="1">
      <circle cx="3.5" cy="3.5" r="3.5" stroke="none"/>
      <circle cx="3.5" cy="3.5" r="3" fill="none"/>
    </g>
    <g id="Ellipse_37-3" data-name="Ellipse 37" transform="translate(1046 780)" fill="rgba(126,87,197,0.47)" stroke="#7e57c5" stroke-width="1">
      <circle cx="3.5" cy="3.5" r="3.5" stroke="none"/>
      <circle cx="3.5" cy="3.5" r="3" fill="none"/>
    </g>
    <g id="Ellipse_37-4" data-name="Ellipse 37" transform="translate(1073 780)" fill="rgba(126,87,197,0.47)" stroke="#7e57c5" stroke-width="1">
      <circle cx="3.5" cy="3.5" r="3.5" stroke="none"/>
      <circle cx="3.5" cy="3.5" r="3" fill="none"/>
    </g>
    <g id="Ellipse_37-5" data-name="Ellipse 37" transform="translate(1100 780)" fill="rgba(126,87,197,0.47)" stroke="#7e57c5" stroke-width="1">
      <circle cx="3.5" cy="3.5" r="3.5" stroke="none"/>
      <circle cx="3.5" cy="3.5" r="3" fill="none"/>
    </g>
    <g id="Ellipse_37-6" data-name="Ellipse 37" transform="translate(1127 780)" fill="rgba(126,87,197,0.47)" stroke="#7e57c5" stroke-width="1">
      <circle cx="3.5" cy="3.5" r="3.5" stroke="none"/>
      <circle cx="3.5" cy="3.5" r="3" fill="none"/>
    </g>
    <g id="Ellipse_37-7" data-name="Ellipse 37" transform="translate(1154 780)" fill="rgba(126,87,197,0.47)" stroke="#7e57c5" stroke-width="1">
      <circle cx="3.5" cy="3.5" r="3.5" stroke="none"/>
      <circle cx="3.5" cy="3.5" r="3" fill="none"/>
    </g>
    <g id="Ellipse_37-8" data-name="Ellipse 37" transform="translate(992 807)" fill="rgba(126,87,197,0.47)" stroke="#7e57c5" stroke-width="1">
      <circle cx="3.5" cy="3.5" r="3.5" stroke="none"/>
      <circle cx="3.5" cy="3.5" r="3" fill="none"/>
    </g>
    <g id="Ellipse_37-9" data-name="Ellipse 37" transform="translate(1019 807)" fill="rgba(126,87,197,0.47)" stroke="#7e57c5" stroke-width="1">
      <circle cx="3.5" cy="3.5" r="3.5" stroke="none"/>
      <circle cx="3.5" cy="3.5" r="3" fill="none"/>
    </g>
    <g id="Ellipse_37-10" data-name="Ellipse 37" transform="translate(1046 807)" fill="rgba(126,87,197,0.47)" stroke="#7e57c5" stroke-width="1">
      <circle cx="3.5" cy="3.5" r="3.5" stroke="none"/>
      <circle cx="3.5" cy="3.5" r="3" fill="none"/>
    </g>
    <g id="Ellipse_37-11" data-name="Ellipse 37" transform="translate(1073 807)" fill="rgba(126,87,197,0.47)" stroke="#7e57c5" stroke-width="1">
      <circle cx="3.5" cy="3.5" r="3.5" stroke="none"/>
      <circle cx="3.5" cy="3.5" r="3" fill="none"/>
    </g>
    <g id="Ellipse_37-12" data-name="Ellipse 37" transform="translate(1100 807)" fill="rgba(126,87,197,0.47)" stroke="#7e57c5" stroke-width="1">
      <circle cx="3.5" cy="3.5" r="3.5" stroke="none"/>
      <circle cx="3.5" cy="3.5" r="3" fill="none"/>
    </g>
    <g id="Ellipse_37-13" data-name="Ellipse 37" transform="translate(1127 807)" fill="rgba(126,87,197,0.47)" stroke="#7e57c5" stroke-width="1">
      <circle cx="3.5" cy="3.5" r="3.5" stroke="none"/>
      <circle cx="3.5" cy="3.5" r="3" fill="none"/>
    </g>
    <g id="Ellipse_37-14" data-name="Ellipse 37" transform="translate(1154 807)" fill="rgba(126,87,197,0.47)" stroke="#7e57c5" stroke-width="1">
      <circle cx="3.5" cy="3.5" r="3.5" stroke="none"/>
      <circle cx="3.5" cy="3.5" r="3" fill="none"/>
    </g>
    <g id="Ellipse_37-15" data-name="Ellipse 37" transform="translate(992 834)" fill="rgba(126,87,197,0.47)" stroke="#7e57c5" stroke-width="1">
      <circle cx="3.5" cy="3.5" r="3.5" stroke="none"/>
      <circle cx="3.5" cy="3.5" r="3" fill="none"/>
    </g>
    <g id="Ellipse_37-16" data-name="Ellipse 37" transform="translate(1019 834)" fill="rgba(126,87,197,0.47)" stroke="#7e57c5" stroke-width="1">
      <circle cx="3.5" cy="3.5" r="3.5" stroke="none"/>
      <circle cx="3.5" cy="3.5" r="3" fill="none"/>
    </g>
    <g id="Ellipse_37-17" data-name="Ellipse 37" transform="translate(1046 834)" fill="rgba(126,87,197,0.47)" stroke="#7e57c5" stroke-width="1">
      <circle cx="3.5" cy="3.5" r="3.5" stroke="none"/>
      <circle cx="3.5" cy="3.5" r="3" fill="none"/>
    </g>
    <g id="Ellipse_37-18" data-name="Ellipse 37" transform="translate(1073 834)" fill="rgba(126,87,197,0.47)" stroke="#7e57c5" stroke-width="1">
      <circle cx="3.5" cy="3.5" r="3.5" stroke="none"/>
      <circle cx="3.5" cy="3.5" r="3" fill="none"/>
    </g>
    <g id="Ellipse_37-19" data-name="Ellipse 37" transform="translate(1100 834)" fill="rgba(126,87,197,0.47)" stroke="#7e57c5" stroke-width="1">
      <circle cx="3.5" cy="3.5" r="3.5" stroke="none"/>
      <circle cx="3.5" cy="3.5" r="3" fill="none"/>
    </g>
    <g id="Ellipse_37-20" data-name="Ellipse 37" transform="translate(1127 834)" fill="rgba(126,87,197,0.47)" stroke="#7e57c5" stroke-width="1">
      <circle cx="3.5" cy="3.5" r="3.5" stroke="none"/>
      <circle cx="3.5" cy="3.5" r="3" fill="none"/>
    </g>
    <g id="Ellipse_37-21" data-name="Ellipse 37" transform="translate(1154 834)" fill="rgba(126,87,197,0.47)" stroke="#7e57c5" stroke-width="1">
      <circle cx="3.5" cy="3.5" r="3.5" stroke="none"/>
      <circle cx="3.5" cy="3.5" r="3" fill="none"/>
    </g>
    <g id="Ellipse_37-22" data-name="Ellipse 37" transform="translate(992 861)" fill="rgba(126,87,197,0.47)" stroke="#7e57c5" stroke-width="1">
      <circle cx="3.5" cy="3.5" r="3.5" stroke="none"/>
      <circle cx="3.5" cy="3.5" r="3" fill="none"/>
    </g>
    <g id="Ellipse_37-23" data-name="Ellipse 37" transform="translate(1019 861)" fill="rgba(126,87,197,0.47)" stroke="#7e57c5" stroke-width="1">
      <circle cx="3.5" cy="3.5" r="3.5" stroke="none"/>
      <circle cx="3.5" cy="3.5" r="3" fill="none"/>
    </g>
    <g id="Ellipse_37-24" data-name="Ellipse 37" transform="translate(1046 861)" fill="rgba(126,87,197,0.47)" stroke="#7e57c5" stroke-width="1">
      <circle cx="3.5" cy="3.5" r="3.5" stroke="none"/>
      <circle cx="3.5" cy="3.5" r="3" fill="none"/>
    </g>
    <g id="Ellipse_37-25" data-name="Ellipse 37" transform="translate(1073 861)" fill="rgba(126,87,197,0.47)" stroke="#7e57c5" stroke-width="1">
      <circle cx="3.5" cy="3.5" r="3.5" stroke="none"/>
      <circle cx="3.5" cy="3.5" r="3" fill="none"/>
    </g>
    <g id="Ellipse_37-26" data-name="Ellipse 37" transform="translate(1100 861)" fill="rgba(126,87,197,0.47)" stroke="#7e57c5" stroke-width="1">
      <circle cx="3.5" cy="3.5" r="3.5" stroke="none"/>
      <circle cx="3.5" cy="3.5" r="3" fill="none"/>
    </g>
    <g id="Ellipse_37-27" data-name="Ellipse 37" transform="translate(1127 861)" fill="rgba(126,87,197,0.47)" stroke="#7e57c5" stroke-width="1">
      <circle cx="3.5" cy="3.5" r="3.5" stroke="none"/>
      <circle cx="3.5" cy="3.5" r="3" fill="none"/>
    </g>
    <g id="Ellipse_37-28" data-name="Ellipse 37" transform="translate(1154 861)" fill="rgba(126,87,197,0.47)" stroke="#7e57c5" stroke-width="1">
      <circle cx="3.5" cy="3.5" r="3.5" stroke="none"/>
      <circle cx="3.5" cy="3.5" r="3" fill="none"/>
    </g>
    <g id="Ellipse_37-29" data-name="Ellipse 37" transform="translate(992 888)" fill="rgba(126,87,197,0.47)" stroke="#7e57c5" stroke-width="1">
      <circle cx="3.5" cy="3.5" r="3.5" stroke="none"/>
      <circle cx="3.5" cy="3.5" r="3" fill="none"/>
    </g>
    <g id="Ellipse_37-30" data-name="Ellipse 37" transform="translate(1019 888)" fill="rgba(126,87,197,0.47)" stroke="#7e57c5" stroke-width="1">
      <circle cx="3.5" cy="3.5" r="3.5" stroke="none"/>
      <circle cx="3.5" cy="3.5" r="3" fill="none"/>
    </g>
    <g id="Ellipse_37-31" data-name="Ellipse 37" transform="translate(1046 888)" fill="rgba(126,87,197,0.47)" stroke="#7e57c5" stroke-width="1">
      <circle cx="3.5" cy="3.5" r="3.5" stroke="none"/>
      <circle cx="3.5" cy="3.5" r="3" fill="none"/>
    </g>
    <g id="Ellipse_37-32" data-name="Ellipse 37" transform="translate(1073 888)" fill="rgba(126,87,197,0.47)" stroke="#7e57c5" stroke-width="1">
      <circle cx="3.5" cy="3.5" r="3.5" stroke="none"/>
      <circle cx="3.5" cy="3.5" r="3" fill="none"/>
    </g>
    <g id="Ellipse_37-33" data-name="Ellipse 37" transform="translate(1100 888)" fill="rgba(126,87,197,0.47)" stroke="#7e57c5" stroke-width="1">
      <circle cx="3.5" cy="3.5" r="3.5" stroke="none"/>
      <circle cx="3.5" cy="3.5" r="3" fill="none"/>
    </g>
    <g id="Ellipse_37-34" data-name="Ellipse 37" transform="translate(1127 888)" fill="rgba(126,87,197,0.47)" stroke="#7e57c5" stroke-width="1">
      <circle cx="3.5" cy="3.5" r="3.5" stroke="none"/>
      <circle cx="3.5" cy="3.5" r="3" fill="none"/>
    </g>
    <g id="Ellipse_37-35" data-name="Ellipse 37" transform="translate(1154 888)" fill="rgba(126,87,197,0.47)" stroke="#7e57c5" stroke-width="1">
      <circle cx="3.5" cy="3.5" r="3.5" stroke="none"/>
      <circle cx="3.5" cy="3.5" r="3" fill="none"/>
    </g>
    <g id="Ellipse_37-36" data-name="Ellipse 37" transform="translate(992 915)" fill="rgba(126,87,197,0.47)" stroke="#7e57c5" stroke-width="1">
      <circle cx="3.5" cy="3.5" r="3.5" stroke="none"/>
      <circle cx="3.5" cy="3.5" r="3" fill="none"/>
    </g>
    <g id="Ellipse_37-37" data-name="Ellipse 37" transform="translate(1019 915)" fill="rgba(126,87,197,0.47)" stroke="#7e57c5" stroke-width="1">
      <circle cx="3.5" cy="3.5" r="3.5" stroke="none"/>
      <circle cx="3.5" cy="3.5" r="3" fill="none"/>
    </g>
    <g id="Ellipse_37-38" data-name="Ellipse 37" transform="translate(1046 915)" fill="rgba(126,87,197,0.47)" stroke="#7e57c5" stroke-width="1">
      <circle cx="3.5" cy="3.5" r="3.5" stroke="none"/>
      <circle cx="3.5" cy="3.5" r="3" fill="none"/>
    </g>
    <g id="Ellipse_37-39" data-name="Ellipse 37" transform="translate(1073 915)" fill="rgba(126,87,197,0.47)" stroke="#7e57c5" stroke-width="1">
      <circle cx="3.5" cy="3.5" r="3.5" stroke="none"/>
      <circle cx="3.5" cy="3.5" r="3" fill="none"/>
    </g>
    <g id="Ellipse_37-40" data-name="Ellipse 37" transform="translate(1100 915)" fill="rgba(126,87,197,0.47)" stroke="#7e57c5" stroke-width="1">
      <circle cx="3.5" cy="3.5" r="3.5" stroke="none"/>
      <circle cx="3.5" cy="3.5" r="3" fill="none"/>
    </g>
    <g id="Ellipse_37-41" data-name="Ellipse 37" transform="translate(1127 915)" fill="rgba(126,87,197,0.47)" stroke="#7e57c5" stroke-width="1">
      <circle cx="3.5" cy="3.5" r="3.5" stroke="none"/>
      <circle cx="3.5" cy="3.5" r="3" fill="none"/>
    </g>
    <g id="Ellipse_37-42" data-name="Ellipse 37" transform="translate(1154 915)" fill="rgba(126,87,197,0.47)" stroke="#7e57c5" stroke-width="1">
      <circle cx="3.5" cy="3.5" r="3.5" stroke="none"/>
      <circle cx="3.5" cy="3.5" r="3" fill="none"/>
    </g>
    <g id="Ellipse_37-43" data-name="Ellipse 37" transform="translate(992 942)" fill="rgba(126,87,197,0.47)" stroke="#7e57c5" stroke-width="1">
      <circle cx="3.5" cy="3.5" r="3.5" stroke="none"/>
      <circle cx="3.5" cy="3.5" r="3" fill="none"/>
    </g>
    <g id="Ellipse_37-44" data-name="Ellipse 37" transform="translate(1019 942)" fill="rgba(126,87,197,0.47)" stroke="#7e57c5" stroke-width="1">
      <circle cx="3.5" cy="3.5" r="3.5" stroke="none"/>
      <circle cx="3.5" cy="3.5" r="3" fill="none"/>
    </g>
    <g id="Ellipse_37-45" data-name="Ellipse 37" transform="translate(1046 942)" fill="rgba(126,87,197,0.47)" stroke="#7e57c5" stroke-width="1">
      <circle cx="3.5" cy="3.5" r="3.5" stroke="none"/>
      <circle cx="3.5" cy="3.5" r="3" fill="none"/>
    </g>
    <g id="Ellipse_37-46" data-name="Ellipse 37" transform="translate(1073 942)" fill="rgba(126,87,197,0.47)" stroke="#7e57c5" stroke-width="1">
      <circle cx="3.5" cy="3.5" r="3.5" stroke="none"/>
      <circle cx="3.5" cy="3.5" r="3" fill="none"/>
    </g>
    <g id="Ellipse_37-47" data-name="Ellipse 37" transform="translate(1100 942)" fill="rgba(126,87,197,0.47)" stroke="#7e57c5" stroke-width="1">
      <circle cx="3.5" cy="3.5" r="3.5" stroke="none"/>
      <circle cx="3.5" cy="3.5" r="3" fill="none"/>
    </g>
    <g id="Ellipse_37-48" data-name="Ellipse 37" transform="translate(1127 942)" fill="rgba(126,87,197,0.47)" stroke="#7e57c5" stroke-width="1">
      <circle cx="3.5" cy="3.5" r="3.5" stroke="none"/>
      <circle cx="3.5" cy="3.5" r="3" fill="none"/>
    </g>
    <g id="Ellipse_37-49" data-name="Ellipse 37" transform="translate(1154 942)" fill="rgba(126,87,197,0.47)" stroke="#7e57c5" stroke-width="1">
      <circle cx="3.5" cy="3.5" r="3.5" stroke="none"/>
      <circle cx="3.5" cy="3.5" r="3" fill="none"/>
    </g>
  </g>
</svg>
