<svg xmlns="http://www.w3.org/2000/svg" width="36" height="28" viewBox="0 0 36 28"><path d="M26,12C26,6.477,20.18,2,13,2S0,6.477,0,12a8.487,8.487,0,0,0,2.373,5.749A13.99,13.99,0,0,1,.138,21.156.5.5,0,0,0,.5,22a11,11,0,0,0,5.546-1.561A15.864,15.864,0,0,0,13,22C20.18,22,26,17.523,26,12ZM12,18V16.982a3.579,3.579,0,0,1-1.961-.709A.5.5,0,0,1,10,15.514l.734-.7a.513.513,0,0,1,.633-.046,1.5,1.5,0,0,0,.8.233h1.757a.786.786,0,0,0,.738-.824.816.816,0,0,0-.548-.8l-2.812-.844A2.829,2.829,0,0,1,9.333,9.824,2.783,2.783,0,0,1,12,7.007V6a.5.5,0,0,1,.5-.5h1A.5.5,0,0,1,14,6V7.018a3.574,3.574,0,0,1,1.961.709A.5.5,0,0,1,16,8.486l-.734.7a.513.513,0,0,1-.633.046,1.5,1.5,0,0,0-.8-.233H12.07a.786.786,0,0,0-.738.824.816.816,0,0,0,.548.8l2.813.844a2.829,2.829,0,0,1,1.974,2.712A2.783,2.783,0,0,1,14,16.993V18a.5.5,0,0,1-.5.5h-1A.5.5,0,0,1,12,18Zm21.626,7.749A8.484,8.484,0,0,0,36,20c0-4.184-3.343-7.762-8.083-9.254A9.7,9.7,0,0,1,28,12c0,6.617-6.729,12-15,12a18.64,18.64,0,0,1-1.983-.118C12.988,27.477,17.611,30,23,30a15.864,15.864,0,0,0,6.954-1.561A11,11,0,0,0,35.5,30a.5.5,0,0,0,.362-.844A13.936,13.936,0,0,1,33.626,25.749Z" transform="translate(0 -2)" fill="#00a5d9"/></svg>