<svg xmlns="http://www.w3.org/2000/svg" width="32" height="28" viewBox="0 0 32 28"><path d="M30,10H2A2,2,0,0,1,0,8V4A2,2,0,0,1,2,2H30a2,2,0,0,1,2,2V8A2,2,0,0,1,30,10ZM27,4.5A1.5,1.5,0,1,0,28.5,6,1.5,1.5,0,0,0,27,4.5Zm-4,0A1.5,1.5,0,1,0,24.5,6,1.5,1.5,0,0,0,23,4.5ZM30,20H2a2,2,0,0,1-2-2V14a2,2,0,0,1,2-2H30a2,2,0,0,1,2,2v4A2,2,0,0,1,30,20Zm-3-5.5A1.5,1.5,0,1,0,28.5,16,1.5,1.5,0,0,0,27,14.5Zm-4,0A1.5,1.5,0,1,0,24.5,16,1.5,1.5,0,0,0,23,14.5ZM30,30H2a2,2,0,0,1-2-2V24a2,2,0,0,1,2-2H30a2,2,0,0,1,2,2v4A2,2,0,0,1,30,30Zm-3-5.5A1.5,1.5,0,1,0,28.5,26,1.5,1.5,0,0,0,27,24.5Zm-4,0A1.5,1.5,0,1,0,24.5,26,1.5,1.5,0,0,0,23,24.5Z" transform="translate(0 -2)" fill="#5ab946"/></svg>