<svg xmlns="http://www.w3.org/2000/svg" width="32" height="32.001" viewBox="0 0 32 32.001"><path d="M6.841,15.252l8.411-8.41L12.5,4.085,8.64,7.94a.495.495,0,0,1-.7,0l-.7-.7a.5.5,0,0,1,0-.7l3.855-3.855-2.1-2.1a1.982,1.982,0,0,0-2.8,0L.581,6.188a1.983,1.983,0,0,0,0,2.8l6.261,6.261Zm24.279-7.3a3,3,0,0,0,0-4.246L28.292.879a3,3,0,0,0-4.247,0L21.169,3.754l7.075,7.075,2.876-2.877ZM19.755,5.169,1.192,23.729.02,30.444a1.327,1.327,0,0,0,1.537,1.535L8.273,30.8,26.83,12.244ZM31.419,23.009l-2.1-2.1-3.855,3.855a.5.5,0,0,1-.7,0l-.7-.7a.5.5,0,0,1,0-.7l3.855-3.855-2.759-2.759-8.411,8.41,6.263,6.263a1.982,1.982,0,0,0,2.8,0l5.607-5.606a1.982,1.982,0,0,0,0-2.8Z" transform="translate(0 0.001)" fill="#f58732"/></svg>