<svg xmlns="http://www.w3.org/2000/svg" width="40.003" height="31.998" viewBox="0 0 40.003 31.998"><path d="M17.431,31.969l-3.812-1.106a.751.751,0,0,1-.512-.931L21.638.544a.751.751,0,0,1,.931-.512l3.813,1.106a.751.751,0,0,1,.513.931L18.362,31.456A.749.749,0,0,1,17.431,31.969Zm-7.125-7.013,2.719-2.9a.75.75,0,0,0-.05-1.075L7.313,16l5.663-4.981a.745.745,0,0,0,.05-1.075l-2.719-2.9a.751.751,0,0,0-1.062-.031L.237,15.45a.745.745,0,0,0,0,1.094l9.006,8.444a.745.745,0,0,0,1.063-.031Zm20.45.038,9.006-8.444a.745.745,0,0,0,0-1.094l-9.006-8.45a.757.757,0,0,0-1.062.031l-2.719,2.9a.75.75,0,0,0,.05,1.075L32.688,16l-5.663,4.981a.745.745,0,0,0-.05,1.075l2.719,2.9a.751.751,0,0,0,1.063.038Z" transform="translate(0.002 -0.002)" fill="#d20082"/></svg>