<svg xmlns="http://www.w3.org/2000/svg" width="40" height="32" viewBox="0 0 40 32"><path d="M31,14a9,9,0,1,0,9,9A9,9,0,0,0,31,14Zm4,9.393a.609.609,0,0,1-.607.607H30.607A.609.609,0,0,1,30,23.393V18.607A.609.609,0,0,1,30.607,18h.786a.609.609,0,0,1,.607.607V22h2.393a.609.609,0,0,1,.607.607ZM31,12c.337,0,.67.021,1,.051V9a3.076,3.076,0,0,0-3-3H24V3a3.076,3.076,0,0,0-3-3H11A3.076,3.076,0,0,0,8,3V6H3A3.076,3.076,0,0,0,0,9v5H24.695A10.933,10.933,0,0,1,31,12ZM20,6H12V4h8Zm.426,14H13a1,1,0,0,1-1-1V16H0v9a3.076,3.076,0,0,0,3,3H21.214a10.852,10.852,0,0,1-.788-8Z" fill="#ed0034"/></svg>